{"glyphs":{":":{"x_min":0,"x_max":185,"ha":185,"o":"m 167 182 q 144 182 144 206 q 144 226 162 246 q 181 267 201 267 q 226 267 226 243 q 226 224 206 203 q 186 182 167 182 z m 7 -5 q -17 -5 -17 19 q -17 39 2 60 q 21 80 41 80 q 66 80 66 56 q 66 37 46 16 q 26 -5 7 -5 z"},"$":{"x_min":0,"x_max":463,"ha":463,"o":"m 456 411 q 501 409 501 365 q 501 345 474 328 q 449 313 428 313 q 412 313 412 326 q 412 329 439 335 q 466 342 466 353 q 466 365 429 365 q 388 365 328 343 q 256 317 256 285 q 256 264 293 264 q 307 264 333 266 q 360 267 373 267 q 419 267 419 214 q 419 170 353 119 q 286 67 196 64 q 125 -48 106 -48 q 95 -48 95 -38 q 95 -32 168 69 q 95 80 95 132 q 95 151 121 169 q 146 185 167 185 q 177 185 177 174 q 177 165 152 156 q 126 146 126 136 q 126 114 182 114 q 227 114 275 133 q 325 154 354 187 q 377 214 377 229 q 377 241 357 239 l 285 234 q 260 234 241 251 q 222 269 222 293 q 222 331 276 369 q 329 407 425 412 q 483 483 492 483 q 502 483 506 473 q 489 450 456 411 z"},"?":{"x_min":0,"x_max":376,"ha":376,"o":"m 105 125 q 95 125 95 140 q 95 169 220 242 l 454 372 q 580 446 580 480 q 580 502 523 502 q 467 502 395 479 q 331 458 281 428 q 271 422 266 422 q 256 422 256 435 q 256 482 362 521 q 451 552 512 552 q 601 552 601 477 q 601 444 577 411 q 539 358 393 285 l 184 181 l 142 151 q 106 125 105 125 z m 17 -5 q -7 -5 -7 19 q -7 39 12 60 q 31 80 51 80 q 76 80 76 56 q 76 37 56 16 q 36 -5 17 -5 z"},"<":{"x_min":0,"x_max":500,"ha":500,"o":"m 589 609 l 589 576 l 268 366 l 589 151 l 589 62 l 177 337 l 177 343 z"},"'":{"x_min":0,"x_max":125,"ha":125,"o":"m 284 449 q 270 449 270 456 q 270 473 312 531 q 356 591 375 591 q 396 591 396 579 q 396 574 386 562 l 343 503 q 300 449 284 449 z"},"=":{"x_min":0,"x_max":463,"ha":463,"o":"m 569 334 l 544 306 l 210 306 l 235 334 z m 502 267 l 478 240 l 144 240 l 168 267 z"},"a":{"x_min":0,"x_max":374,"ha":374,"o":"m 65 103 q -65 0 -114 0 q -120 0 -120 6 q -120 15 -108 17 q -62 24 19 88 l 82 137 l 183 218 q 252 266 301 266 q 338 266 342 229 q 361 247 369 247 q 385 247 385 234 q 385 217 310 129 q 235 42 235 27 q 235 17 251 17 q 267 16 267 8 q 267 -1 234 -1 q 201 -1 201 27 q 201 50 228 93 l 167 42 q 123 8 96 8 q 54 8 54 51 q 54 74 65 103 z m 308 246 q 279 246 189 160 q 99 74 99 45 q 99 32 111 32 q 139 32 231 116 q 322 200 322 229 q 322 246 308 246 z"},"L":{"x_min":0,"x_max":637,"ha":637,"o":"m 250 97 q 418 31 480 31 q 487 31 500 34 q 512 37 518 37 q 522 37 522 32 q 522 17 493 4 q 468 -6 449 -6 q 384 -6 213 61 q 110 -34 2 -34 q -41 -34 -71 -18 q -108 2 -108 42 q -108 91 -49 123 q 0 149 54 149 q 120 149 196 118 l 450 388 q 555 501 603 543 q 717 643 789 643 q 850 643 856 591 q 881 600 888 600 q 895 600 895 592 q 895 585 879 578 l 858 570 q 853 478 750 357 q 648 237 592 237 q 551 237 551 274 q 551 327 628 422 q 704 517 824 580 q 825 588 825 592 q 825 620 799 620 q 752 620 646 520 q 606 482 512 379 l 354 207 z m 820 554 q 725 507 648 416 q 572 324 572 282 q 572 267 586 267 q 618 267 699 356 q 780 445 820 554 z m 157 80 q 86 106 16 106 q -89 106 -89 44 q -89 -8 -12 -8 q 67 -8 157 80 z"},"3":{"x_min":0,"x_max":463,"ha":463,"o":"m 325 295 q 377 295 415 276 q 461 251 461 204 q 461 157 420 106 q 376 52 295 20 q 221 -10 145 -10 q 104 -10 75 7 q 42 28 42 67 q 42 94 61 125 q 82 158 107 158 q 118 158 118 151 l 94 124 q 71 97 71 74 q 71 32 133 32 q 228 32 322 96 q 415 159 415 215 q 415 248 383 264 q 357 277 321 277 q 306 277 281 270 q 257 263 249 263 q 242 263 236 270 q 230 277 230 284 q 230 295 270 303 q 337 316 412 345 q 497 377 542 413 q 594 453 594 478 q 594 504 546 504 q 441 504 315 434 q 308 429 292 425 q 280 430 280 443 q 280 468 364 509 q 447 549 520 549 q 576 549 604 516 q 632 482 632 458 q 632 368 394 309 q 342 295 325 295 z"},";":{"x_min":0,"x_max":185,"ha":185,"o":"m 133 182 q 110 182 110 206 q 110 226 129 246 q 148 267 167 267 q 193 267 193 243 q 193 224 173 203 q 152 182 133 182 z m 7 0 q -21 2 -21 21 q -21 39 0 57 q 20 75 38 75 q 66 75 66 50 q 66 14 20 -30 q -27 -73 -64 -73 q -76 -73 -76 -63 q -76 -58 -57 -49 q -8 -28 7 0 z"},"J":{"x_min":0,"x_max":670,"ha":670,"o":"m 494 100 q 518 98 518 77 q 518 54 499 54 q 495 54 494 57 q 493 59 494 62 q 495 67 495 68 q 495 78 472 77 q 336 -67 254 -137 q 92 -275 -3 -275 q -25 -275 -40 -261 q -55 -247 -55 -224 q -55 -174 28 -100 q 104 -32 214 24 q 327 81 423 99 q 491 167 629 345 q 783 541 805 602 q 814 629 814 644 q 814 663 798 663 q 731 663 588 605 q 443 547 323 444 q 202 340 202 265 q 202 206 265 206 q 351 206 475 273 q 590 336 616 396 q 619 402 622 404 q 634 405 634 385 q 634 357 580 307 q 528 259 438 219 q 342 176 278 176 q 230 176 198 210 q 165 244 165 292 q 165 385 286 485 q 389 570 542 633 q 687 692 775 692 q 849 692 849 634 q 849 519 494 100 z m 399 74 q 309 50 195 -15 q 80 -81 16 -147 q -38 -202 -38 -229 q -38 -254 -7 -254 q 18 -254 51 -238 q 97 -216 227 -95 q 324 -5 399 74 z"},"V":{"x_min":0,"x_max":695,"ha":695,"o":"m 332 407 q 337 407 337 401 q 337 381 273 333 q 208 285 181 285 q 143 285 143 321 q 143 373 237 465 q 323 548 435 616 q 549 687 603 687 q 639 687 639 651 q 639 628 615 593 q 598 567 519 480 q 234 168 234 49 q 234 6 271 6 q 346 6 527 165 q 707 324 815 470 q 923 617 923 657 q 923 671 908 671 q 871 671 770 572 q 668 473 670 440 l 670 429 q 671 421 666 421 q 660 421 655 430 q 649 438 649 444 q 649 467 706 536 q 750 590 802 634 q 874 694 918 694 q 954 694 954 658 q 954 586 829 422 q 729 290 576 156 q 379 -17 271 -17 q 232 -17 210 15 q 191 43 191 83 q 191 174 299 313 q 364 398 498 533 q 605 641 605 653 q 605 663 594 663 q 539 663 356 517 q 173 370 173 321 q 173 312 182 312 q 207 312 268 360 q 329 407 332 407 z"},"\"":{"x_min":0,"x_max":251,"ha":251,"o":"m 284 449 q 270 449 270 456 q 270 473 312 531 q 356 591 375 591 q 396 591 396 579 q 396 574 386 562 l 343 503 q 300 449 284 449 z m 409 449 q 396 449 396 456 q 396 472 438 530 q 482 591 500 591 q 521 591 521 579 q 521 574 511 562 q 476 514 427 455 q 419 449 409 449 z"},"7":{"x_min":0,"x_max":463,"ha":463,"o":"m 615 500 q 614 505 598 505 q 525 505 388 487 q 380 486 373 486 q 346 486 346 507 q 346 515 355 522 q 365 528 495 541 q 618 552 653 552 q 694 552 694 529 q 694 519 658 488 q 562 404 438 274 l 170 -5 q 162 -5 153 4 q 145 14 145 22 q 145 49 312 216 q 425 329 524 419 z"},"S":{"x_min":0,"x_max":625,"ha":625,"o":"m 654 258 q 654 206 577 135 q 497 62 382 21 q 273 -18 159 -18 q 3 -18 3 75 q 3 131 91 177 q 167 217 229 217 q 250 217 250 205 q 250 197 229 194 q 169 185 114 160 q 36 125 36 83 q 36 31 156 31 q 254 31 367 70 q 481 110 555 172 q 626 233 626 263 q 626 293 530 304 q 371 323 352 327 q 255 351 255 410 q 255 486 368 554 q 460 610 603 649 q 728 683 803 683 q 899 683 899 623 q 899 572 810 502 q 724 436 669 436 q 625 436 625 466 q 625 491 675 525 q 723 558 750 558 q 759 558 759 552 l 709 524 q 659 497 657 484 q 659 481 665 481 q 700 481 781 528 q 866 578 866 610 q 866 638 798 638 q 720 638 578 593 q 482 563 410 529 q 285 470 285 423 q 285 393 364 378 l 521 357 q 612 344 632 317 q 654 288 654 258 z"},"}":{"x_min":0,"x_max":307,"ha":307,"o":"m 345 302 q 336 308 336 318 q 336 349 472 501 q 607 654 607 686 q 607 704 594 707 q 593 707 568 707 q 563 707 563 712 q 563 727 601 727 q 646 727 646 686 q 646 648 579 562 l 455 414 q 388 333 388 311 q 388 301 396 298 q 407 295 409 292 q 409 280 382 277 q 353 273 324 242 l 262 175 l 104 0 q 0 -107 -85 -142 q -135 -162 -159 -162 q -173 -162 -173 -153 q -173 -142 -147 -140 q -90 -136 -33 -83 q 24 -31 107 72 q 173 155 217 201 q 305 296 345 302 z"},"Z":{"x_min":0,"x_max":599,"ha":599,"o":"m 336 104 q 354 84 354 57 q 354 46 351 29 q 357 30 363 24 q 368 19 368 13 q 368 -3 354 -3 q 350 1 341 9 q 305 -92 150 -198 q -5 -305 -114 -305 q -171 -305 -171 -269 q -171 -225 -95 -149 q -28 -84 81 -27 q 205 39 289 39 q 303 39 315 37 q 320 49 320 60 q 320 81 304 89 q 213 53 163 53 q 138 53 138 71 q 138 92 186 109 q 226 123 254 123 q 262 123 279 121 q 295 119 303 119 q 325 119 453 201 q 555 266 641 349 q 762 464 762 540 q 762 588 692 588 q 613 588 506 555 q 407 524 332 481 q 253 437 253 421 q 253 415 263 415 q 298 415 364 442 q 444 476 464 480 l 468 476 q 467 459 369 422 q 272 386 242 386 q 206 386 206 413 q 206 452 287 506 q 365 558 468 592 q 577 628 664 628 q 796 628 796 511 q 796 417 684 304 q 572 191 336 104 z m 304 16 q 295 18 286 18 q 178 18 15 -101 q -148 -219 -148 -267 q -148 -283 -126 -283 q -74 -283 46 -209 q 145 -149 205 -97 q 258 -50 304 16 z"},"x":{"x_min":0,"x_max":361,"ha":361,"o":"m 229 238 l 5 56 q -65 0 -114 0 q -120 0 -120 6 q -120 15 -108 17 q -91 20 -67 31 q -37 43 71 128 q 121 167 216 250 q 255 286 262 286 q 286 286 286 265 q 286 246 276 216 l 260 169 q 289 192 347 235 q 416 286 423 286 q 434 286 434 275 q 434 267 409 253 q 381 237 251 140 q 223 45 223 31 q 223 19 238 17 q 254 15 254 8 q 254 -1 229 -1 q 179 -1 179 40 q 179 57 188 97 l 114 44 l 53 0 q 45 0 45 6 q 45 13 114 66 l 195 127 z"},")":{"x_min":0,"x_max":307,"ha":307,"o":"m 626 712 q 626 674 539 528 q 448 377 275 196 q 95 6 -45 -78 q -185 -162 -208 -162 q -217 -162 -217 -153 q -217 -143 -199 -134 q -127 -100 -33 -34 q 81 46 238 212 q 394 378 486 512 q 528 573 546 603 q 578 655 596 700 q 606 727 615 727 q 626 727 626 712 z"},"&":{"x_min":0,"x_max":515,"ha":515,"o":"m 318 150 q 413 158 452 158 q 511 158 511 139 q 511 133 478 133 q 398 133 289 117 l 238 52 q 187 -10 181 -11 q 166 -5 166 9 q 166 23 238 113 q 193 108 161 108 q 77 108 77 157 q 77 205 135 249 q 189 290 240 290 q 311 290 311 221 q 311 212 309 201 l 406 317 q 427 342 440 342 q 456 342 456 325 q 456 300 318 150 z m 264 146 q 292 188 292 220 q 292 255 254 255 q 221 255 163 221 q 100 185 100 156 q 100 134 160 134 q 200 134 264 146 z"},"_":{"x_min":0,"x_max":500,"ha":500,"o":"m 158 -87 l 608 -87 l 608 -125 l 158 -125 z"},"v":{"x_min":0,"x_max":378,"ha":378,"o":"m 282 120 q 267 123 267 139 q 267 171 309 223 q 351 275 381 275 q 398 275 398 257 q 398 209 297 105 q 195 1 143 1 q 102 1 102 45 q 102 83 144 141 l 212 226 q 165 181 83 117 l -8 46 q -76 0 -114 0 q -120 0 -120 6 q -120 15 -108 17 q -91 20 -65 31 q -36 43 69 127 q 116 164 206 243 q 239 275 255 275 q 283 275 283 248 q 283 229 215 150 q 148 71 148 42 q 148 27 162 27 q 195 27 282 120 z m 296 134 q 315 153 341 187 q 372 229 372 244 l 368 248 q 353 248 320 204 q 287 161 287 144 q 287 136 296 134 z"},"O":{"x_min":0,"x_max":592,"ha":592,"o":"m 687 677 q 729 677 753 652 q 778 627 778 585 q 778 466 644 288 q 529 134 409 47 q 327 -12 252 -12 q 129 -12 129 116 q 129 240 220 378 q 299 497 413 583 q 529 671 551 671 q 575 671 575 642 q 614 667 662 677 q 665 703 669 703 q 690 703 687 677 z m 682 653 q 665 597 618 527 q 460 291 376 291 q 338 291 338 343 q 338 463 530 612 q 446 560 397 512 q 311 427 247 316 q 170 185 170 85 q 170 54 186 35 q 203 13 233 13 q 312 13 440 134 q 556 242 650 386 q 745 532 745 604 q 745 655 693 655 q 688 655 682 653 z m 654 646 q 592 622 517 551 q 446 485 409 422 q 373 358 373 333 q 373 315 389 315 q 434 315 537 454 q 629 579 654 646 z"},"(":{"x_min":0,"x_max":307,"ha":307,"o":"m 762 718 q 762 708 743 700 q 677 670 568 592 q 447 506 294 343 q 141 179 53 46 l -2 -36 q -34 -85 -48 -123 q -62 -161 -70 -161 q -82 -161 -82 -145 q -82 -111 7 40 q 106 206 250 360 q 400 521 555 621 q 720 728 751 728 q 762 728 762 718 z"},"C":{"x_min":0,"x_max":609,"ha":609,"o":"m 854 586 q 837 512 750 409 q 657 298 591 298 q 552 298 552 335 q 552 392 655 485 q 748 568 815 595 q 820 608 820 621 q 820 658 778 658 q 688 658 529 555 q 375 456 260 328 q 133 188 133 95 q 133 20 222 20 q 287 20 363 55 q 416 79 473 120 l 519 154 q 527 154 527 140 q 527 105 458 60 q 412 29 355 6 q 298 -18 244 -18 q 183 -18 140 19 q 96 58 96 119 q 96 248 251 402 q 377 526 522 600 q 687 683 772 683 q 852 683 855 608 q 871 614 878 614 q 887 614 887 605 q 887 597 854 586 z m 804 569 q 721 526 649 447 q 577 367 577 344 q 577 333 585 333 q 619 333 704 432 q 776 517 804 569 z"},"W":{"x_min":0,"x_max":935,"ha":935,"o":"m 623 347 l 417 137 q 253 -17 178 -17 q 147 -17 127 3 q 108 22 108 53 q 108 143 236 288 q 321 384 475 514 q 603 623 603 627 q 603 633 595 633 q 557 633 417 544 q 275 454 275 426 q 275 420 283 420 q 292 420 319 435 l 357 456 q 366 456 366 447 q 366 436 318 413 q 270 391 253 391 q 222 391 222 421 q 222 448 295 511 q 355 562 451 611 q 560 668 621 668 q 647 668 647 646 q 647 611 565 536 q 139 141 139 36 q 139 9 163 9 q 230 9 479 238 q 620 368 777 530 q 794 549 831 583 q 843 592 849 592 q 856 592 864 583 q 872 574 872 567 q 872 556 785 457 q 675 333 623 257 q 536 133 536 59 q 536 10 577 10 q 614 10 670 54 q 725 96 845 222 q 965 346 1056 475 q 1147 604 1147 627 q 1147 637 1138 637 q 1116 637 1029 562 l 940 487 q 936 489 936 494 q 936 524 1026 597 q 1117 670 1157 670 q 1187 670 1187 638 q 1187 581 1067 420 q 981 304 900 216 q 798 106 723 48 q 646 -12 582 -12 q 504 -12 504 83 q 504 146 544 222 q 566 266 623 347 z"},"A":{"x_min":0,"x_max":759,"ha":759,"o":"m 733 282 l 778 282 q 811 278 811 262 q 811 251 787 251 l 755 253 l 709 252 l 610 126 q 509 0 498 0 q 489 0 481 14 q 474 26 474 37 q 474 52 640 252 l 602 252 q 522 252 365 243 l 200 103 l 136 45 q 84 0 73 0 q 59 0 59 15 q 59 32 200 149 l 312 242 q 88 232 81 220 l 81 220 q 81 210 150 210 l 216 211 q 229 212 229 206 q 229 192 123 192 q 32 192 32 215 q 32 244 85 255 q 101 258 161 262 l 351 275 q 466 370 681 522 q 954 715 1006 715 q 1033 715 1033 681 q 1033 652 964 566 z m 664 282 l 893 560 l 935 611 q 962 646 971 665 l 971 667 q 971 672 966 672 q 943 672 676 477 l 408 277 z"},"f":{"x_min":0,"x_max":321,"ha":321,"o":"m 201 216 l 36 81 q -62 0 -114 0 q -120 0 -120 6 q -120 14 -107 17 q -88 21 -65 32 q -27 48 81 136 q 168 208 225 260 q 302 332 515 572 q 542 603 558 603 q 576 603 576 584 q 576 572 567 558 l 485 466 l 389 359 l 191 131 q 226 132 226 90 q 226 15 116 -141 q 1 -301 -66 -301 q -87 -301 -99 -285 q -111 -270 -111 -249 q -111 -225 -95 -187 q -70 -128 44 20 z m 185 15 q 207 60 207 93 q 207 116 188 116 q 172 116 157 89 q 143 65 143 47 q 143 15 177 15 z m 179 -1 q 125 0 125 50 q -80 -204 -80 -262 q -80 -283 -61 -283 q -16 -283 73 -166 q 145 -71 179 -1 z"},"Q":{"x_min":0,"x_max":593,"ha":593,"o":"m 520 141 q 535 140 545 138 q 564 134 564 126 q 547 87 521 87 l 463 91 q 341 -15 251 -15 q 192 -15 160 20 q 127 55 127 114 q 127 226 215 367 q 289 484 391 578 q 501 679 542 679 q 556 679 556 663 q 556 649 515 620 q 405 542 294 385 q 171 210 171 97 q 171 85 175 75 q 249 149 400 149 q 420 149 457 146 q 557 249 635 357 q 745 512 745 600 q 745 654 697 654 q 634 654 540 570 q 466 505 416 431 q 402 412 393 412 q 376 412 376 430 q 376 459 441 531 q 572 677 683 677 q 727 677 752 651 q 778 625 778 581 q 778 403 520 141 z m 406 97 q 379 100 350 100 q 257 100 220 79 q 182 58 182 39 q 182 11 235 11 q 301 11 406 97 z"},"w":{"x_min":0,"x_max":508,"ha":508,"o":"m 204 216 l 64 102 q -61 0 -114 0 q -120 0 -120 6 q -120 14 -107 17 q -87 21 -63 33 q -33 46 74 131 q 122 169 215 251 q 251 286 264 286 q 273 286 282 277 q 292 268 292 259 q 292 247 219 154 q 146 62 146 44 q 146 30 158 30 q 185 30 278 143 q 372 257 386 257 q 403 257 403 240 q 403 229 349 152 q 295 75 295 41 q 295 24 309 24 q 333 24 417 118 q 406 128 406 146 q 406 183 447 234 q 491 288 525 288 q 537 288 537 274 q 537 229 441 117 q 345 2 300 2 q 259 2 259 44 q 259 74 282 119 q 233 64 218 50 q 170 3 143 3 q 107 3 107 42 q 107 78 144 135 z m 433 138 q 511 228 511 255 q 511 262 506 262 q 488 262 457 218 q 425 174 425 152 q 425 142 433 138 z"},"-":{"x_min":0,"x_max":280,"ha":280,"o":"m 65 128 q 15 128 15 146 q 15 169 192 169 l 241 169 q 276 166 276 148 q 276 133 259 133 l 177 131 z"},"E":{"x_min":0,"x_max":586,"ha":586,"o":"m 523 398 q 461 398 409 419 q 339 446 339 498 q 339 581 521 636 q 662 679 774 679 q 886 679 886 605 q 886 564 805 526 q 734 492 686 492 q 656 492 656 517 q 656 533 681 549 q 704 565 721 565 q 730 565 730 558 q 730 555 717 548 q 702 541 699 537 q 704 533 711 533 q 737 533 796 562 q 861 593 861 614 q 861 634 790 634 q 711 634 602 606 q 530 587 469 562 q 370 521 370 485 q 370 442 506 425 q 584 415 680 415 q 700 415 700 400 q 700 373 637 370 q 445 361 271 281 q 93 198 93 116 q 93 35 231 35 q 313 35 391 72 q 443 97 495 141 q 539 178 540 178 q 551 178 551 150 q 551 105 450 46 q 350 -12 247 -12 q 60 -12 60 137 q 60 233 193 304 q 282 352 412 380 q 449 389 523 398 z"},"s":{"x_min":0,"x_max":285,"ha":285,"o":"m 40 83 q -62 0 -114 0 q -120 0 -120 6 q -120 15 -110 17 q -92 21 -55 37 q -20 56 124 175 q 260 289 264 289 q 275 289 286 279 q 297 269 297 258 q 297 222 241 132 q 193 55 157 16 q 178 16 178 8 q 178 -1 157 -1 q 152 -1 141 0 q 131 2 125 2 q 122 2 114 1 q 106 0 102 0 q 40 0 40 83 z m 118 41 q 152 69 193 139 q 231 203 246 252 l 71 110 q 89 107 102 82 z m 104 26 l 90 64 q 79 93 69 93 q 58 93 58 76 q 58 60 68 42 q 79 22 94 22 q 100 22 104 26 z"},">":{"x_min":0,"x_max":500,"ha":500,"o":"m 177 62 l 177 96 l 499 306 l 177 521 l 177 609 l 589 334 l 589 329 z"},"l":{"x_min":0,"x_max":284,"ha":284,"o":"m 149 158 l 29 67 q -69 0 -114 0 q -120 0 -120 6 q -120 15 -102 18 q -82 21 -55 36 q -22 53 55 110 q 112 151 175 201 q 248 310 375 438 q 517 579 565 579 q 587 579 587 555 q 587 494 443 358 q 352 273 244 194 q 219 175 182 115 q 144 54 144 28 q 144 16 170 16 q 177 16 177 8 q 177 -1 151 -1 q 111 -1 111 40 q 111 80 149 158 z m 562 564 q 542 564 411 415 q 285 272 251 219 q 570 479 570 556 q 570 564 562 564 z"},"8":{"x_min":0,"x_max":463,"ha":463,"o":"m 373 317 q 404 248 404 191 q 404 109 340 48 q 276 -14 192 -14 q 146 -14 116 21 q 88 55 88 102 q 88 244 328 352 q 324 368 324 383 q 324 462 398 512 q 463 556 546 556 q 579 556 605 545 q 640 532 640 504 q 640 495 627 477 q 634 480 639 480 q 647 480 647 470 q 647 460 639 447 q 631 433 609 424 q 473 366 373 317 z m 604 471 q 599 514 519 514 q 456 514 409 483 q 355 447 355 388 q 355 377 358 366 q 494 428 604 471 z m 338 301 q 117 185 117 79 q 117 54 135 40 q 152 26 177 26 q 245 26 301 81 q 357 135 357 203 q 357 251 338 301 z"},"\\":{"x_min":0,"x_max":782,"ha":782,"o":"m 616 -76 q 616 -83 605 -92 q 595 -101 586 -101 l 582 -99 q 562 -79 495 257 q 429 587 429 653 q 429 688 459 688 q 465 688 465 664 q 465 648 498 481 l 559 173 l 590 43 q 616 -65 616 -76 z"},"e":{"x_min":0,"x_max":295,"ha":295,"o":"m 68 79 q 43 73 -24 34 q -83 0 -114 0 q -120 0 -120 6 q -120 15 -107 17 q -78 22 -23 54 q 36 88 74 97 q 96 151 167 210 q 241 274 294 274 q 333 274 333 241 q 333 198 250 146 q 190 108 126 87 q 120 71 120 54 q 120 29 137 21 q 146 18 170 17 q 188 16 188 8 q 188 -4 128 -4 q 64 -4 64 51 q 64 64 68 79 z m 132 106 q 177 128 227 166 q 293 215 293 244 q 293 256 283 256 q 251 256 196 197 q 147 144 132 106 z"},"b":{"x_min":0,"x_max":381,"ha":381,"o":"m 252 249 q 278 268 303 268 q 324 268 339 252 q 353 236 353 214 q 353 152 283 78 q 212 2 150 2 q 91 2 91 63 q 91 95 119 153 q 43 85 13 62 q -69 0 -114 0 q -120 0 -120 6 q -120 15 -107 17 q -58 27 27 95 q 122 169 207 275 q 335 434 426 511 q 521 590 553 590 q 583 590 583 560 q 583 527 521 457 q 469 397 326 306 q 306 294 268 269 q 262 265 252 249 z m 564 556 q 564 562 559 562 q 537 562 426 448 q 336 355 297 307 q 490 425 545 515 q 564 546 564 556 z m 269 132 q 315 188 315 223 q 315 248 294 248 q 271 248 250 224 q 230 201 230 177 q 230 144 269 132 z m 257 117 q 212 136 212 176 q 212 191 222 214 q 123 87 123 44 q 123 24 142 24 q 187 24 257 117 z"},"%":{"x_min":0,"x_max":527,"ha":527,"o":"m 395 433 l 405 433 q 483 433 692 518 q 700 521 706 521 q 720 521 720 506 q 720 487 582 395 l 368 254 q 160 115 35 15 q 9 -5 4 -5 q -2 -5 -9 3 q -15 11 -15 18 q -15 68 601 460 q 465 414 379 414 q 323 353 278 353 q 256 353 242 368 q 228 383 228 405 q 228 456 292 510 q 353 563 405 563 q 438 563 438 526 q 438 486 395 433 z m 373 436 q 417 479 417 510 q 417 524 406 524 q 387 524 365 504 q 344 484 344 465 q 344 439 373 436 z m 328 481 q 263 435 263 393 q 263 371 283 371 q 313 371 358 417 q 326 432 326 462 q 326 469 328 481 z m 307 -7 q 286 -7 271 6 q 255 19 255 41 q 255 80 292 126 q 325 168 363 189 q 408 214 427 214 q 447 214 459 196 q 470 180 470 158 q 470 113 411 53 q 352 -7 307 -7 z m 435 168 q 403 168 345 118 q 287 68 287 37 q 287 17 312 17 q 349 17 399 66 q 449 115 449 151 q 449 168 435 168 z"},"m":{"x_min":0,"x_max":544,"ha":544,"o":"m 207 218 l 51 89 q -67 0 -114 0 q -120 0 -120 6 q -120 15 -110 17 q -75 26 -55 37 q -24 53 74 131 q 118 166 202 241 q 233 274 247 274 q 274 274 274 256 q 274 234 219 163 q 325 261 366 261 q 379 261 391 252 q 402 244 402 230 q 402 211 375 173 q 474 271 531 271 q 563 271 563 244 q 563 210 484 128 q 404 46 404 29 q 404 17 420 16 q 437 16 437 8 q 437 -1 409 -1 q 371 -1 371 32 q 371 70 440 150 q 510 229 510 238 q 510 244 503 244 q 474 244 375 152 q 293 76 255 28 q 231 -1 220 -1 q 201 -1 201 17 q 201 35 278 120 q 354 206 354 226 q 354 234 345 234 q 319 234 229 149 q 151 76 120 35 q 95 3 76 3 q 60 3 60 18 q 60 36 127 121 z"},"#":{"x_min":0,"x_max":463,"ha":463,"o":"m 338 349 l 433 353 l 483 418 q 521 467 533 467 q 542 467 542 458 q 542 447 467 354 l 500 355 q 520 355 520 345 q 520 325 489 322 l 446 323 l 385 232 l 417 232 q 440 233 440 219 q 440 199 363 199 l 249 24 q 235 2 228 2 q 217 2 217 14 q 217 22 255 83 l 329 199 l 231 197 q 180 125 118 21 q 103 -4 91 -4 q 83 -4 83 4 q 83 29 197 197 l 153 196 q 130 196 130 205 q 130 223 217 227 l 281 319 q 272 319 253 318 l 226 318 q 205 318 205 329 q 205 342 250 346 l 301 347 l 351 414 q 392 468 404 468 q 414 468 414 459 q 414 453 338 349 z m 318 320 l 253 229 l 351 231 l 412 322 z"},",":{"x_min":0,"x_max":185,"ha":185,"o":"m 23 1 q -8 1 -8 21 q -8 40 11 60 q 30 80 50 80 q 76 80 76 53 q 76 -6 7 -56 q -27 -80 -41 -80 q -51 -80 -51 -71 q -51 -69 -19 -43 q 16 -16 23 1 z"},"n":{"x_min":0,"x_max":419,"ha":419,"o":"m 211 148 q 346 262 400 262 q 435 262 435 229 q 435 200 356 125 q 277 49 277 34 q 277 18 295 17 q 312 16 312 8 q 312 -1 277 -1 q 237 -1 237 35 q 237 65 276 111 q 296 135 348 185 q 387 222 387 230 q 387 236 378 236 q 351 236 257 162 q 180 101 142 61 q 94 11 84 11 q 76 11 70 18 q 63 26 63 34 q 63 45 131 125 l 211 220 l 86 119 l -6 48 q -76 0 -114 0 q -120 0 -120 6 q -120 15 -106 18 q -88 21 -63 32 q -27 48 83 137 q 181 217 225 259 q 232 267 248 277 q 255 280 264 280 q 272 280 281 274 q 290 269 290 261 q 290 252 211 148 z"},"h":{"x_min":0,"x_max":411,"ha":411,"o":"m 175 112 q 352 269 412 269 q 438 269 438 241 q 438 211 354 128 q 271 44 271 30 q 271 16 297 16 q 304 16 304 8 q 304 -1 280 -1 q 238 -1 238 35 q 238 76 303 143 q 383 225 390 236 q 390 242 384 242 q 357 242 247 148 q 165 79 115 29 q 95 9 83 0 q 75 0 69 9 q 62 19 62 26 q 62 38 129 123 l 207 220 q 159 176 88 120 l -5 48 q -76 0 -114 0 q -120 0 -120 6 q -120 15 -110 17 q -70 27 -39 46 q 18 82 132 178 l 231 262 q 262 288 404 455 q 532 604 544 604 q 562 604 562 583 q 562 567 464 452 z"},"z":{"x_min":0,"x_max":334,"ha":334,"o":"m 182 83 q 286 173 286 231 q 286 256 267 256 q 248 256 170 190 q 52 89 21 66 q -68 0 -114 0 q -120 0 -120 6 q -120 15 -110 17 q -55 31 16 86 l 82 137 l 177 217 q 248 277 268 283 q 288 289 299 289 q 348 289 348 241 q 348 168 200 71 q 220 58 220 32 q 220 -22 97 -150 q -25 -277 -99 -277 q -139 -277 -139 -241 q -139 -182 -44 -96 q 51 -10 171 16 q 182 31 182 45 q 182 51 177 56 q 122 30 92 30 q 64 30 64 43 q 64 60 104 74 q 139 86 160 86 q 172 86 182 83 z m 160 -3 q 50 -27 -36 -108 q -123 -189 -123 -241 q -123 -258 -107 -258 q -61 -258 39 -153 q 117 -70 160 -3 z"},"B":{"x_min":0,"x_max":765,"ha":765,"o":"m 566 351 q 580 351 621 340 q 748 309 748 221 q 748 131 620 53 q 492 -26 369 -26 q 306 -26 267 -1 q 220 28 220 87 q 220 110 226 130 l 166 58 q 117 0 106 0 q 97 0 88 7 q 79 14 79 22 q 79 49 192 171 q 317 308 331 332 l 323 353 q 323 376 369 371 l 605 617 q 426 596 335 551 q 311 539 302 539 q 279 539 279 559 q 279 591 401 626 q 522 662 658 669 q 688 695 699 695 q 708 695 713 686 q 717 677 715 668 q 939 668 939 539 q 939 464 825 417 q 775 396 646 366 q 620 359 566 351 z m 672 623 l 441 373 q 591 392 711 427 q 914 485 914 559 q 914 624 739 624 z m 407 333 q 242 169 242 92 q 242 56 281 37 q 311 23 352 23 q 476 23 594 97 q 712 170 712 239 q 712 292 609 319 q 539 337 461 337 q 432 337 407 333 z"},"K":{"x_min":0,"x_max":647,"ha":647,"o":"m 401 292 l 420 161 q 438 51 447 36 q 454 24 474 19 q 491 15 491 10 q 491 4 468 0 q 450 -3 439 -3 q 407 -3 393 30 q 381 56 342 303 q 194 145 95 29 q 70 0 60 0 q 43 0 33 22 q 34 47 294 332 q 554 617 554 617 l 553 619 q 537 618 444 553 l 354 488 q 346 488 346 498 q 346 510 464 588 q 583 667 608 667 q 618 667 631 656 q 644 646 644 637 q 644 631 606 591 l 561 544 l 374 337 l 381 337 q 394 338 396 320 l 863 565 q 1016 645 1036 645 q 1044 645 1044 629 q 1044 605 1004 587 l 918 548 z"},"R":{"x_min":0,"x_max":707,"ha":707,"o":"m 633 608 q 635 596 635 592 q 635 584 584 532 l 523 469 q 365 297 237 141 q 174 63 143 18 q 120 -16 105 -16 q 80 -16 80 8 q 80 59 506 521 q 536 554 588 600 q 492 581 361 516 q 350 510 344 510 q 327 510 327 536 q 327 564 438 604 q 515 631 580 646 q 661 663 733 663 q 815 663 853 631 q 896 597 896 517 q 896 443 795 369 q 680 284 489 278 q 501 250 526 147 q 549 53 558 42 q 567 31 596 31 q 602 31 604 27 q 604 17 580 8 q 561 1 547 1 q 530 1 513 13 q 496 24 489 62 l 469 155 q 457 209 443 248 q 438 262 424 286 q 405 305 405 309 q 405 321 449 321 q 465 321 475 309 q 548 309 654 351 q 759 393 810 444 q 871 505 871 548 q 871 619 750 619 q 702 619 633 608 z"},"T":{"x_min":0,"x_max":640,"ha":640,"o":"m 843 641 l 937 639 q 981 639 1047 649 q 1077 653 1083 653 q 1090 653 1090 646 q 1090 637 1066 630 l 1034 623 q 937 598 808 601 q 701 479 570 286 q 473 143 420 88 q 314 -22 210 -22 q 173 -22 151 1 q 130 25 130 63 q 130 130 191 179 q 252 227 278 227 q 289 227 289 217 q 289 208 255 183 q 210 149 191 127 q 158 88 158 44 q 158 0 193 0 q 271 0 399 151 q 427 184 559 365 q 657 499 768 602 l 627 605 q 526 605 440 560 q 384 530 329 476 q 283 431 278 431 q 259 431 259 444 q 259 448 288 480 q 323 521 341 549 q 370 595 370 630 q 370 634 370 642 q 369 649 369 653 q 369 668 382 668 q 412 668 412 651 q 412 591 337 511 q 417 584 491 616 q 570 650 673 650 q 724 650 806 643 q 821 662 833 662 q 844 662 843 641 z"},"P":{"x_min":0,"x_max":630,"ha":630,"o":"m 390 284 l 261 131 q 150 -1 144 -1 q 137 -1 126 9 q 116 19 116 25 q 116 42 324 288 q 263 297 263 316 q 263 334 289 333 l 361 330 l 519 504 q 557 548 635 627 q 467 604 302 536 q 291 532 285 532 q 269 532 269 552 q 269 592 436 638 q 602 683 711 683 q 780 683 826 660 q 887 631 887 569 q 887 432 697 349 q 547 284 390 284 z m 679 632 q 682 625 682 621 q 682 607 565 476 l 436 333 q 542 341 642 373 q 765 412 822 474 q 869 525 869 566 q 869 635 733 635 q 713 635 679 632 z"},"|":{"x_min":0,"x_max":500,"ha":500,"o":"m 360 667 l 407 667 l 407 -167 l 360 -167 z"},"t":{"x_min":0,"x_max":270,"ha":270,"o":"m 276 319 l 101 312 q 86 312 86 320 q 86 326 110 330 q 144 335 205 339 q 272 343 300 346 l 370 430 q 426 496 438 496 q 452 496 452 478 q 452 458 363 346 q 415 350 448 350 q 471 350 471 341 q 471 331 417 328 l 342 325 l 233 189 q 130 55 130 29 q 130 17 147 16 q 164 16 164 8 q 164 -1 142 -1 q 99 -1 99 34 q 99 62 127 114 l 169 185 l 25 71 q -65 0 -114 0 q -120 0 -120 6 q -120 15 -110 17 q -94 21 -60 34 q -27 51 85 140 q 169 205 190 224 q 229 259 276 319 z"},"M":{"x_min":0,"x_max":876,"ha":876,"o":"m 657 333 q 995 675 1090 675 q 1129 675 1129 638 q 1129 603 1101 561 q 1081 530 852 284 q 650 68 650 30 q 650 17 669 16 q 688 14 688 10 q 688 -4 659 -4 q 617 -4 617 36 q 617 109 799 312 q 863 384 1041 562 q 1102 623 1102 647 q 1102 657 1092 657 q 1059 657 902 527 q 777 423 716 361 q 657 302 561 194 q 387 0 382 0 q 375 0 365 9 q 354 18 354 25 q 354 44 562 290 q 770 535 770 574 q 770 583 760 583 q 735 583 631 505 q 535 433 420 324 l 223 128 l 153 53 q 95 -9 91 -9 q 83 -9 71 -1 q 58 7 58 14 q 58 30 181 167 l 409 424 q 532 569 532 603 q 532 616 519 616 q 484 616 373 525 q 289 458 135 286 q 125 275 119 275 q 108 275 108 284 q 108 296 194 395 q 255 464 348 541 q 469 641 522 641 q 559 641 559 601 q 559 535 383 320 q 683 605 760 605 q 796 605 796 568 q 796 510 657 333 z"},"g":{"x_min":0,"x_max":364,"ha":364,"o":"m 75 110 q 6 56 -14 43 q -78 0 -114 0 q -120 0 -120 6 q -120 14 -108 17 q -57 29 20 89 l 157 198 q 255 270 306 270 q 347 270 346 224 q 369 250 379 250 q 393 250 393 234 q 393 219 229 15 q 232 15 240 16 q 247 16 251 16 q 257 16 257 8 q 257 0 238 -2 l 213 -3 q -25 -298 -137 -298 q -183 -298 -183 -260 q -183 -198 -91 -115 q 0 -32 163 7 q 205 54 231 92 q 181 49 168 39 q 124 7 94 7 q 58 7 58 50 q 58 77 75 110 z m 328 231 q 328 249 312 249 q 281 249 192 163 q 103 78 103 43 q 103 31 112 31 q 139 31 232 114 q 328 199 328 231 z m 146 -17 q 37 -43 -64 -127 q -166 -210 -166 -258 q -166 -279 -147 -279 q -106 -279 5 -169 q 89 -88 146 -17 z"},"j":{"x_min":0,"x_max":244,"ha":244,"o":"m 332 368 q 309 368 309 392 q 309 412 333 428 q 354 442 375 442 q 401 442 401 415 q 401 395 375 380 q 353 368 332 368 z m 93 14 q 115 16 130 16 q 137 16 137 8 q 137 0 113 -1 l 80 -2 q 36 -55 -96 -195 q -179 -283 -205 -283 q -230 -283 -230 -253 q -230 -195 -157 -110 q -85 -25 33 8 q 125 111 211 226 q 139 162 68 105 q -63 0 -114 0 q -120 0 -120 6 q -120 15 -106 17 q -89 20 -61 33 q -30 48 62 122 q 150 193 197 239 q 242 282 258 282 q 284 282 284 263 q 284 245 260 216 z m 18 -14 q -82 -45 -146 -122 q -211 -199 -211 -244 q -211 -256 -203 -256 q -184 -256 18 -14 z"},"i":{"x_min":0,"x_max":257,"ha":257,"o":"m 332 368 q 308 368 308 392 q 308 412 332 428 q 354 442 375 442 q 400 442 400 415 q 400 395 375 380 q 353 368 332 368 z m 116 29 q 116 16 144 16 q 150 16 150 8 q 150 -1 118 -1 q 82 -1 82 34 q 82 75 190 206 l 57 97 q -61 0 -114 0 q -120 0 -120 6 q -120 15 -110 17 q -80 23 -54 37 q -22 55 81 136 l 230 262 q 240 265 256 265 q 273 265 273 246 q 273 226 194 135 q 116 45 116 29 z"},"y":{"x_min":0,"x_max":411,"ha":411,"o":"m 268 15 l 298 16 q 304 16 304 8 q 304 0 282 -2 l 251 -4 l 115 -172 q -7 -312 -59 -312 q -83 -312 -83 -279 q -83 -207 13 -111 q 109 -16 210 7 l 312 138 l 231 66 q 158 6 132 6 q 101 6 101 49 q 101 87 137 138 l 196 213 q 139 162 64 102 q 3 54 -19 40 q -78 0 -114 0 q -120 0 -120 6 q -120 15 -110 17 q -49 32 60 121 l 145 191 l 200 240 q 247 280 252 280 q 265 280 277 272 q 288 263 288 251 l 211 162 q 134 70 134 40 q 134 31 144 31 q 173 31 287 140 q 370 219 425 282 q 437 294 441 294 q 451 294 461 288 q 471 281 471 272 q 471 268 464 261 q 375 163 268 15 z m 193 -14 q 95 -45 15 -130 q -64 -214 -64 -268 q -64 -285 -53 -285 q -6 -285 193 -14 z"},"@":{"x_min":0,"x_max":657,"ha":657,"o":"m 622 418 q 642 437 648 437 q 665 437 665 423 q 665 406 589 318 q 514 230 514 215 q 514 206 535 206 q 617 206 709 338 q 796 463 796 550 q 796 650 704 650 q 583 650 456 555 q 348 475 271 357 q 182 224 182 121 q 182 14 319 14 q 374 14 403 26 q 475 56 480 56 q 495 56 495 43 q 495 39 472 24 q 448 9 391 -2 q 339 -12 303 -12 q 228 -12 182 25 q 133 65 133 139 q 133 250 227 386 q 309 506 428 586 q 562 676 693 676 q 757 676 798 643 q 843 607 843 544 q 843 441 736 316 q 625 187 525 187 q 483 187 483 218 q 483 241 507 282 q 409 197 376 197 q 334 197 334 240 q 334 314 431 385 q 527 455 581 455 q 619 455 622 418 z m 588 435 q 559 435 469 349 q 379 264 379 234 q 379 221 391 221 q 419 221 511 305 q 602 389 602 419 q 602 435 588 435 z"},".":{"x_min":0,"x_max":185,"ha":185,"o":"m 20 -5 q -3 -5 -3 19 q -3 39 15 60 q 34 80 54 80 q 79 80 79 56 q 79 37 59 16 q 39 -5 20 -5 z"},"p":{"x_min":0,"x_max":403,"ha":403,"o":"m 219 229 q 154 172 76 110 l -12 43 q -76 0 -114 0 q -120 0 -120 6 q -120 15 -108 17 q -91 20 -65 32 q -35 45 63 123 l 185 224 q 290 310 297 310 q 315 310 315 290 q 315 282 267 217 q 324 266 360 266 q 398 266 398 225 q 398 171 339 104 q 288 46 232 18 q 238 16 290 16 q 296 16 296 8 q 296 -2 258 -2 q 227 -2 205 7 q 193 3 181 3 q 132 3 136 71 l -125 -223 q -135 -233 -143 -233 q -157 -233 -157 -209 q -157 -186 -57 -72 l 44 39 z m 201 42 q 257 75 306 139 q 354 204 354 225 q 354 238 339 238 q 311 238 248 184 q 203 145 167 104 q 181 104 188 79 q 197 47 201 42 z m 181 36 l 172 68 q 165 94 162 94 q 152 94 152 61 q 152 33 171 33 q 177 33 181 36 z"},"X":{"x_min":0,"x_max":600,"ha":600,"o":"m 496 342 l 412 132 q 384 62 384 37 q 384 15 406 15 q 410 15 417 16 q 424 18 427 18 q 436 18 436 11 q 436 3 415 -2 q 399 -6 388 -6 q 364 -6 350 11 q 336 28 336 53 q 336 119 411 297 q 220 181 20 26 q -16 0 -21 0 q -34 0 -34 16 q -34 21 -24 34 q -11 52 149 165 q 293 265 347 298 q 378 316 437 356 l 492 486 q 536 596 536 614 q 536 625 527 625 q 506 625 435 577 q 371 534 346 509 q 333 494 307 470 q 302 467 298 467 q 287 467 287 478 q 287 514 396 586 q 501 655 542 655 q 562 655 576 641 q 590 626 590 606 q 590 576 561 500 l 520 398 q 892 638 951 638 q 966 638 966 620 q 966 611 933 597 q 847 559 656 441 z"},"*":{"x_min":0,"x_max":328,"ha":328,"o":"m 428 505 q 361 456 353 456 q 343 456 343 466 q 343 472 416 518 l 385 541 q 361 559 361 565 q 361 576 370 576 q 375 576 433 532 l 469 576 q 500 612 506 612 q 514 612 514 604 q 514 594 455 526 l 508 527 q 551 526 551 517 q 551 506 524 506 q 504 506 449 509 q 468 451 468 445 q 468 430 457 430 q 449 430 439 464 z"},"Y":{"x_min":0,"x_max":725,"ha":725,"o":"m 696 302 q 534 162 484 124 q 320 -2 251 -2 q 179 -2 179 81 q 179 165 279 277 q 323 327 445 434 q 537 516 586 564 q 646 622 646 633 q 646 639 639 639 q 608 639 504 591 q 399 543 290 451 q 181 359 181 333 q 181 324 193 324 q 224 324 276 349 l 326 374 q 330 372 330 369 q 330 352 269 323 q 211 295 187 295 q 147 295 147 331 q 147 380 256 473 q 333 539 438 595 q 564 664 641 664 q 683 664 683 626 q 683 581 561 463 l 333 250 q 211 125 211 61 q 211 27 244 27 q 312 27 495 169 q 605 254 729 368 q 781 415 939 578 q 986 626 996 626 q 1006 626 1016 620 q 1027 613 1027 604 q 1027 595 1017 583 l 439 -69 l 375 -133 q 330 -178 325 -195 q 331 -193 344 -183 q 355 -172 360 -172 q 365 -172 367 -176 q 366 -184 322 -223 q 280 -260 261 -285 q 243 -307 231 -307 q 221 -307 211 -297 q 202 -288 202 -277 q 202 -260 231 -227 l 573 160 z"},"c":{"x_min":0,"x_max":306,"ha":306,"o":"m 108 136 l 6 56 q -73 0 -114 0 q -120 0 -120 6 q -120 15 -108 17 q -63 26 15 85 l 150 193 q 262 285 322 285 q 354 285 354 260 q 364 260 364 250 q 364 242 352 242 q 342 207 315 173 q 283 132 253 132 q 236 132 236 148 q 236 171 274 208 q 308 240 334 251 l 335 257 q 335 264 329 264 q 297 264 212 176 q 127 89 127 54 q 127 32 146 23 q 155 19 181 17 q 199 15 199 8 q 199 -1 165 -1 q 89 -1 89 68 q 89 94 108 136 z m 326 230 q 312 224 286 198 q 258 170 258 160 l 262 156 q 275 156 299 186 q 319 212 326 230 z"},"!":{"x_min":0,"x_max":238,"ha":238,"o":"m 100 104 q 89 104 89 118 q 89 129 108 155 q 136 195 287 373 q 457 573 476 573 q 491 573 491 554 q 491 511 110 110 q 105 104 100 104 z m 32 -5 q 8 -5 8 19 q 8 39 27 60 q 46 80 66 80 q 91 80 91 56 q 91 37 71 16 q 51 -5 32 -5 z"},"/":{"x_min":0,"x_max":579,"ha":579,"o":"m 965 687 q 971 687 977 682 q 983 677 983 671 q 983 664 953 640 q 918 612 865 575 l 579 375 l -9 -14 q -147 -104 -164 -104 q -182 -104 -182 -85 q -182 -77 -165 -66 l -32 21 l 295 234 l 786 563 z"},"[":{"x_min":0,"x_max":307,"ha":307,"o":"m 727 727 l 706 700 l 623 700 l -96 -134 l -13 -134 l -32 -161 l -170 -161 l 594 727 z"},"6":{"x_min":0,"x_max":463,"ha":463,"o":"m 399 353 q 433 353 453 333 q 474 312 474 279 q 474 194 380 92 q 285 -12 202 -12 q 162 -12 135 18 q 107 47 107 87 q 107 191 215 324 q 309 439 415 502 q 518 563 574 563 q 591 563 591 546 q 591 537 548 523 q 425 482 315 353 q 298 333 280 305 q 338 353 399 353 z m 392 330 q 313 330 229 235 q 148 142 148 62 q 148 11 191 11 q 257 11 342 117 q 425 219 425 289 q 425 330 392 330 z"},"r":{"x_min":0,"x_max":284,"ha":284,"o":"m 162 216 q 159 232 159 235 q 159 249 191 277 q 222 305 234 305 q 245 305 245 294 q 245 286 233 265 q 288 265 288 221 q 288 187 217 111 q 146 35 146 25 q 146 17 155 16 l 171 16 q 178 16 178 8 q 178 -1 149 -1 q 113 -1 113 31 q 113 62 149 110 q 172 140 216 184 q 252 219 252 223 q 252 230 244 230 q 237 230 216 224 q 196 219 192 215 q -35 0 -114 0 q -120 0 -120 6 q -120 15 -107 17 q -91 20 -64 32 q -25 50 54 116 q 124 174 162 216 z"},"2":{"x_min":0,"x_max":463,"ha":463,"o":"m 42 42 l 244 66 q 271 69 302 69 q 349 69 349 49 q 349 37 316 32 l 274 29 q 214 24 128 11 l 66 -1 q 22 -9 5 -9 q -21 -9 -21 33 q -21 49 -3 62 q 0 64 28 81 l 326 250 q 397 290 475 341 q 583 414 606 447 q 624 473 624 495 q 624 526 588 526 q 526 526 439 481 q 369 444 309 393 q 296 383 290 383 q 283 383 276 391 q 268 400 268 406 q 268 421 335 468 q 477 568 564 568 q 603 568 633 538 q 662 507 662 468 q 662 404 542 320 q 486 281 365 217 l 196 127 z"},"{":{"x_min":0,"x_max":307,"ha":307,"o":"m 224 291 q 230 284 230 276 q 230 240 84 76 q -62 -88 -62 -120 q -62 -138 -49 -141 q -47 -141 -22 -141 q -18 -141 -18 -146 q -18 -161 -56 -161 q -99 -161 -99 -120 q -99 -79 -26 14 l 107 172 q 180 257 180 281 q 180 291 172 293 q 161 297 159 299 q 159 312 183 315 q 207 318 220 328 q 235 339 315 426 l 456 583 q 545 672 625 706 q 677 727 704 727 q 719 727 719 719 q 719 708 693 706 q 642 702 590 660 q 534 614 439 495 q 380 420 341 379 q 262 295 224 291 z"},"9":{"x_min":0,"x_max":463,"ha":463,"o":"m 440 272 q 356 217 289 217 q 254 217 233 240 q 212 264 212 299 q 212 384 330 479 q 442 569 530 569 q 563 569 587 546 q 611 522 611 489 q 611 394 487 246 q 379 117 279 54 q 179 -8 149 -8 q 137 -8 137 4 q 137 12 171 29 q 224 54 297 117 q 361 173 407 227 q 423 246 440 272 z m 250 277 q 250 243 287 243 q 353 243 426 290 q 494 334 532 393 q 577 465 577 506 q 577 536 546 536 q 494 536 372 447 q 250 357 250 277 z"}," ":{"x_min":0,"x_max":250,"ha":250,"o":""},"I":{"x_min":0,"x_max":573,"ha":573,"o":"m 559 289 l 596 298 q 623 305 632 305 q 645 305 645 296 q 645 283 522 253 q 323 51 229 -13 q 201 -32 180 -32 q 149 -32 149 -5 q 149 12 197 64 q 244 117 258 117 q 265 117 265 109 q 265 105 234 72 q 202 35 197 27 l 198 27 q 217 28 427 233 q 375 224 313 224 q 229 224 204 258 q 178 292 178 318 q 178 396 290 487 q 386 564 526 624 q 659 680 735 680 q 811 680 811 629 q 811 541 559 289 z m 772 643 q 772 657 753 657 q 716 657 583 599 q 450 541 331 447 q 211 352 211 309 q 211 266 333 266 q 446 266 470 278 q 477 281 585 392 q 641 449 694 514 q 772 610 772 643 z"},"H":{"x_min":0,"x_max":809,"ha":809,"o":"m 823 318 l 871 318 q 907 315 907 298 q 907 290 894 290 q 830 290 797 287 l 607 59 l 582 24 q 561 0 548 0 q 540 0 531 8 q 523 17 523 25 q 523 41 615 157 l 720 286 l 469 276 q 329 130 277 85 q 133 -43 50 -43 q 14 -43 -10 -20 q -34 3 -34 40 q -34 127 77 212 q 189 297 421 305 q 734 644 736 661 l 733 664 q 699 663 587 593 l 476 523 q 470 523 470 530 q 470 552 604 629 q 739 705 775 705 q 788 705 800 695 q 813 686 813 673 q 813 656 736 571 l 495 307 l 748 318 q 1051 667 1074 667 q 1095 667 1095 650 q 1095 638 1060 598 q 927 449 823 318 z m 395 275 q 279 272 209 245 q 129 215 58 137 q -4 69 -4 27 q -4 -10 40 -10 q 67 -10 107 15 q 153 42 255 137 q 349 223 395 275 z"},"4":{"x_min":0,"x_max":463,"ha":463,"o":"m 423 246 l 471 246 q 505 242 505 223 q 505 213 488 212 l 463 213 q 435 213 392 210 l 226 19 q 205 -5 196 -5 q 175 -5 175 11 q 175 42 324 207 l 143 194 l 132 194 q 104 192 104 220 q 104 232 117 249 q 150 293 375 417 q 602 543 651 543 q 675 543 675 528 q 675 515 647 487 z m 355 243 l 562 468 l 575 480 q 451 425 311 341 l 233 294 q 173 255 162 241 q 162 240 162 239 q 168 235 183 235 z"},"~":{"x_min":0,"x_max":667,"ha":667,"o":"m 666 367 l 679 359 q 658 322 622 295 q 582 266 543 266 q 516 266 454 287 q 393 308 360 308 q 331 308 307 291 q 292 279 268 249 l 254 257 q 316 351 394 351 q 423 351 479 331 q 535 311 563 311 q 622 311 666 367 z"},"D":{"x_min":0,"x_max":737,"ha":737,"o":"m 667 627 q 687 628 699 628 q 757 628 788 614 q 826 597 851 550 q 871 511 871 474 q 871 362 760 238 q 672 141 565 69 q 431 -20 328 -20 q 281 -20 252 7 q 224 35 224 81 q 224 109 231 137 l 119 14 q 106 0 94 0 q 73 0 73 19 q 73 26 79 38 q 95 71 297 291 l 547 562 q 455 545 393 521 q 330 497 313 497 q 291 497 291 512 q 291 525 382 560 q 473 594 606 619 l 634 645 q 655 664 662 664 q 675 664 675 646 q 675 641 667 627 z m 632 575 l 312 227 q 272 184 262 166 q 243 134 243 90 q 243 24 314 24 q 397 24 525 108 q 648 190 739 298 q 837 416 837 500 q 837 585 731 585 q 684 585 632 575 z"},"^":{"x_min":0,"x_max":500,"ha":500,"o":"m 657 287 l 624 287 l 414 609 l 199 287 l 110 287 l 385 700 l 391 700 z"},"0":{"x_min":0,"x_max":463,"ha":463,"o":"m 489 522 q 520 549 557 549 q 616 549 616 483 q 616 402 539 281 q 464 164 363 79 q 253 -13 171 -13 q 134 -13 105 12 q 75 38 75 75 q 75 162 165 285 q 240 388 328 457 q 423 533 466 533 q 481 533 489 522 z m 450 482 q 351 429 231 277 q 111 125 111 60 q 111 18 157 18 q 220 18 326 113 q 424 200 502 314 q 583 432 583 494 q 583 526 558 526 q 535 526 450 459 q 445 459 445 466 q 445 469 450 482 z"},"F":{"x_min":0,"x_max":643,"ha":643,"o":"m 638 317 q 673 319 693 319 q 720 319 720 305 q 720 295 616 287 q 494 126 449 78 q 320 -61 236 -61 q 206 -61 186 -45 q 164 -29 164 0 q 164 54 213 119 q 261 184 281 184 q 287 184 287 178 q 287 176 262 145 q 231 106 215 77 q 189 32 189 -1 q 189 -40 229 -40 q 259 -40 303 -1 q 353 42 430 137 l 545 284 q 481 281 390 269 q 298 256 291 256 q 274 256 274 269 q 274 277 285 285 q 296 292 418 303 l 569 315 q 731 528 827 598 q 757 609 690 609 q 583 609 486 582 q 374 550 305 488 l 268 442 q 241 408 231 408 q 214 408 214 425 q 214 449 306 565 q 397 681 415 681 q 431 681 431 666 q 431 657 415 639 q 363 583 331 532 q 501 652 704 652 q 775 652 877 637 q 955 688 1032 688 q 1077 688 1077 665 q 1077 626 993 607 q 936 594 877 594 q 779 512 638 317 z m 918 630 q 937 627 951 627 q 978 627 1010 635 q 1054 646 1054 663 q 1054 671 1038 671 q 972 671 918 630 z"},"`":{"x_min":0,"x_max":500,"ha":500,"o":"m 435 323 q 422 323 389 363 q 357 401 357 413 q 357 419 365 427 q 374 434 380 434 q 390 434 402 407 q 405 401 426 365 q 445 332 445 330 q 445 323 435 323 z"},"k":{"x_min":0,"x_max":400,"ha":400,"o":"m 211 226 l 80 116 l -9 45 q -73 0 -114 0 q -120 0 -120 6 q -120 15 -110 17 q -46 32 64 124 l 203 240 q 251 280 357 399 l 494 555 q 526 594 540 594 q 557 594 557 577 q 557 555 515 503 l 454 435 l 259 210 q 332 262 365 262 q 405 262 405 223 q 405 179 328 147 q 265 122 211 122 q 229 80 256 27 q 266 16 287 16 q 293 16 293 8 q 293 -2 255 -2 q 237 -2 224 7 q 211 16 170 104 l 121 45 q 80 -3 72 -3 q 51 -3 51 21 q 51 36 128 128 z m 196 133 q 270 142 317 173 q 364 204 364 225 q 364 236 350 236 q 296 236 196 133 z"},"u":{"x_min":0,"x_max":400,"ha":400,"o":"m 249 92 q 164 9 124 9 q 93 9 93 42 q 93 82 128 131 l 191 206 l 52 90 q -66 0 -114 0 q -120 0 -120 6 q -120 15 -106 18 q -88 21 -63 32 q -35 45 56 117 q 98 150 180 220 q 193 234 224 258 q 236 266 246 266 q 274 266 274 248 q 274 229 206 153 q 138 77 138 45 q 138 37 146 37 q 176 37 277 148 q 378 260 392 260 q 398 260 405 253 q 412 246 412 239 q 412 227 336 140 q 260 53 260 28 q 260 17 277 17 q 293 16 293 8 q 293 -1 269 -1 q 228 -1 228 30 q 228 53 249 92 z"},"]":{"x_min":0,"x_max":307,"ha":307,"o":"m 591 723 l 723 723 l -50 -157 l -188 -157 l -159 -130 l -77 -130 l 648 696 l 565 696 z"},"U":{"x_min":0,"x_max":736,"ha":736,"o":"m 654 314 l 441 136 q 252 -10 180 -10 q 154 -10 136 8 q 118 27 118 53 q 118 103 158 167 q 206 245 314 359 q 414 464 497 531 q 531 556 593 609 q 601 618 601 622 q 601 626 595 626 q 564 626 480 578 q 411 538 369 505 q 354 493 347 493 q 330 493 330 507 q 330 519 394 563 q 536 662 606 662 q 640 662 640 627 q 640 594 583 543 q 458 431 338 303 q 152 104 152 38 q 152 22 163 22 q 194 22 321 99 q 410 153 519 240 l 707 396 q 743 426 801 486 l 893 582 q 979 669 990 669 q 1002 669 1013 659 q 1023 649 1023 638 q 1023 631 1015 623 q 809 415 693 275 q 527 74 527 34 q 527 14 552 14 q 556 14 562 16 q 569 18 572 18 q 577 18 577 13 q 577 4 557 -1 q 542 -6 530 -6 q 492 -6 492 36 q 492 118 654 314 z"},"o":{"x_min":0,"x_max":352,"ha":352,"o":"m 102 130 l 1 54 q -76 0 -114 0 q -120 0 -120 6 q -120 15 -110 17 q -81 22 -60 34 q -23 54 60 120 l 188 226 q 226 258 234 258 q 246 258 261 245 q 289 266 311 266 q 344 266 344 230 q 344 177 259 85 q 173 -7 120 -7 q 70 -7 70 45 q 70 72 102 130 z m 267 129 q 285 146 303 176 q 323 209 323 229 q 323 248 307 248 q 283 248 259 218 q 235 188 235 164 q 235 136 267 129 z m 219 190 q 120 104 120 49 q 120 25 142 25 q 179 25 256 114 q 215 124 215 167 q 215 178 219 190 z"},"N":{"x_min":0,"x_max":726,"ha":726,"o":"m 415 347 q 583 482 646 528 q 829 658 904 658 q 925 658 942 644 q 958 630 958 609 q 958 550 816 410 l 619 218 q 453 52 453 32 q 453 20 463 17 q 466 16 484 16 q 501 16 501 9 q 501 1 477 -5 q 457 -11 445 -11 q 426 -11 412 0 q 397 11 397 30 q 397 52 419 82 q 440 111 556 229 l 788 460 q 826 497 844 516 q 881 555 895 577 q 915 612 915 626 q 915 637 905 637 q 876 637 756 565 q 470 394 137 40 q 99 0 92 0 q 85 0 76 9 q 66 18 66 25 q 66 46 196 180 l 437 433 q 567 577 567 621 q 567 636 555 636 q 501 636 305 467 q 216 391 150 314 q 139 302 133 302 q 115 302 115 321 q 115 344 223 447 q 300 520 378 575 q 492 656 555 656 q 595 656 595 612 q 595 564 522 469 q 471 401 415 347 z"},"+":{"x_min":0,"x_max":463,"ha":463,"o":"m 351 300 l 484 454 l 518 453 l 385 300 l 535 300 l 511 273 l 361 273 l 228 120 l 194 120 l 327 273 l 177 273 l 201 300 z"},"G":{"x_min":0,"x_max":692,"ha":692,"o":"m 512 66 q 525 65 525 49 q 525 40 518 32 q 511 23 503 23 q 502 32 492 43 l 393 -61 q 284 -175 233 -216 q 124 -305 38 -305 q -24 -305 -24 -254 q -24 -169 141 -54 q 306 62 450 74 l 592 230 q 323 28 208 28 q 162 28 130 59 q 99 90 99 137 q 99 252 239 390 q 364 513 542 603 q 719 693 833 693 q 920 693 920 625 q 920 549 828 475 q 736 401 684 401 q 651 401 651 438 q 651 478 704 531 q 742 570 791 602 q 843 635 854 635 q 862 635 862 629 q 862 625 816 596 q 779 572 734 530 q 677 477 677 450 q 677 438 689 438 q 731 438 812 510 q 896 583 896 625 q 896 662 842 662 q 750 662 579 564 q 408 467 282 345 q 142 209 142 116 q 142 67 198 67 q 288 67 483 193 q 636 291 746 388 q 772 411 779 411 q 788 411 788 393 q 788 367 763 341 z m 429 48 q 288 32 142 -82 q -3 -195 -3 -254 q -3 -284 37 -284 q 72 -284 125 -249 q 175 -215 338 -46 z"},"q":{"x_min":0,"x_max":380,"ha":380,"o":"m 81 114 q 6 57 -11 45 q -78 0 -114 0 q -120 0 -120 6 q -120 15 -109 17 q -62 26 -3 71 l 188 217 q 262 274 318 274 q 364 274 364 240 q 364 224 355 207 q 371 201 371 188 q 371 184 230 16 l 267 16 q 273 16 273 8 q 273 -3 236 -1 q 240 -17 240 -26 q 240 -79 156 -183 q 71 -289 24 -289 q -3 -289 -3 -256 q -3 -199 101 -76 l 230 81 q 136 2 99 2 q 55 2 55 44 q 55 72 81 114 z m 111 28 q 151 28 249 113 q 346 198 346 237 q 346 251 334 251 q 292 251 196 165 q 100 79 100 40 q 100 28 111 28 z m 217 0 q 166 -58 110 -131 q 30 -236 30 -261 q 30 -269 38 -269 q 60 -269 142 -176 q 224 -83 224 -26 q 224 -13 217 0 z"},"d":{"x_min":0,"x_max":374,"ha":374,"o":"m 84 117 l -8 46 q -77 0 -114 0 q -120 0 -120 6 q -120 15 -110 17 q -73 26 -42 45 q 4 72 88 146 q 172 219 217 246 q 250 265 275 265 q 319 265 321 229 q 394 321 487 426 q 629 588 657 588 q 673 588 673 570 q 673 556 633 514 q 560 438 414 266 q 234 56 234 28 q 234 17 250 17 q 267 16 267 8 q 267 -1 243 -1 q 205 -1 205 30 q 205 56 237 109 q 141 7 100 7 q 62 7 62 47 q 62 69 84 117 z m 114 32 q 142 32 224 115 q 307 199 307 227 q 307 241 293 241 q 259 241 182 160 q 104 79 104 42 q 104 32 114 32 z"},"1":{"x_min":0,"x_max":463,"ha":463,"o":"m 500 470 q 342 384 313 384 q 302 384 302 397 q 302 405 325 411 q 352 419 409 448 l 508 506 q 589 555 593 555 q 618 555 618 538 q 618 520 573 477 q 411 320 154 6 q 145 -4 139 -4 q 131 -4 124 5 q 117 15 117 23 q 117 50 301 255 z"},"5":{"x_min":0,"x_max":463,"ha":463,"o":"m 455 533 q 538 541 595 541 q 610 541 621 530 q 632 519 632 502 q 632 493 605 493 l 416 484 q 315 388 254 317 q 314 343 360 343 q 401 343 426 321 q 453 298 453 257 q 453 174 350 81 q 246 -12 144 -12 q 104 -12 78 6 q 47 26 47 64 q 47 80 57 102 q 68 128 80 128 q 87 128 87 121 q 87 116 80 98 q 73 80 73 70 q 73 31 117 31 q 193 31 301 115 q 413 203 413 276 q 413 319 364 319 q 311 319 233 271 q 220 263 211 259 q 203 259 196 271 q 189 282 189 291 q 189 311 342 464 l 386 509 q 422 545 433 545 q 438 545 455 533 z"}}}
